<svg width="600" height="700" viewBox="0 0 600 700" fill="none" xmlns="http://www.w3.org/2000/svg">
    <defs>
        <linearGradient id="alien_skin" x1="300" y1="0" x2="300" y2="300" gradientUnits="userSpaceOnUse">
            <stop stop-color="#8899AA"/>
            <stop offset="1" stop-color="#445566"/>
        </linearGradient>
        <radialGradient id="void_eye" cx="0.5" cy="0.5" r="0.5">
            <stop offset="0.7" stop-color="#000000"/>
            <stop offset="1" stop-color="#220033"/>
        </radialGradient>
        <linearGradient id="jacket_grad" x1="100" y1="300" x2="500" y2="700" gradientUnits="userSpaceOnUse">
            <stop stop-color="#3A2A20"/>
            <stop offset="1" stop-color="#1A1005"/>
        </linearGradient>
    </defs>

    <path d="M120 700 L160 300 L200 250 H400 L440 300 L480 700 H120Z" fill="url(#jacket_grad)" stroke="#111" stroke-width="2"/>
    <path d="M160 300 L200 250 L220 350 M440 300 L400 250 L380 350" stroke="#532" stroke-width="4"/>
    <path d="M220 400 H380 M220 450 H380" stroke="#221" stroke-width="2" opacity="0.5"/>
    <rect x="250" y="400" width="100" height="150" fill="#221111" opacity="0.3"/> <rect x="230" y="240" width="140" height="60" rx="10" fill="#111" stroke="#333" stroke-width="3"/>
    <circle cx="260" cy="270" r="15" fill="#00FF00" opacity="0.2"/> <path d="M290 250 V290 M310 250 V290 M330 250 V290" stroke="#444" stroke-width="3"/>

    <g id="head">
        <path d="M300 30 C240 30 180 100 200 200 C210 240 260 280 300 280 C340 280 390 240 400 200 C420 100 360 30 300 30" fill="url(#alien_skin)"/>
        
        <path d="M300 30 C340 30 380 60 390 150" stroke="#556677" stroke-width="2" fill="none" opacity="0.5"/>
        
        <path d="M220 180 C210 150 230 120 260 130 C280 140 270 190 250 200 C230 210 220 180 220 180" fill="url(#void_eye)"/>
        <path d="M235 145 C240 140 250 145 255 150" fill="white" opacity="0.8"/> <path d="M380 180 C390 150 370 120 340 130 C320 140 330 190 350 200 C370 210 380 180 380 180" fill="url(#void_eye)"/>
        <path d="M365 145 C360 140 350 145 345 150" fill="white" opacity="0.8"/> <path d="M290 220 L295 210 M310 220 L305 210" stroke="#334455" stroke-width="2"/>

        <path d="M280 250 Q300 255 320 250" stroke="#334455" stroke-width="2"/>
    </g>

    <g transform="translate(0, 50)">
        <path d="M120 350 Q80 450 100 600" stroke="#778899" stroke-width="30"/> <path d="M480 350 Q520 450 500 600" stroke="#778899" stroke-width="30"/> <ellipse cx="140" cy="580" rx="30" ry="20" fill="#778899"/>
        <ellipse cx="460" cy="580" rx="30" ry="20" fill="#778899"/>
    </g>
</svg>